<mxfile host="app.diagrams.net" modified="2021-08-04T16:01:17.123Z" agent="5.0 (Macintosh; Intel Mac OS X 10_15_7) AppleWebKit/537.36 (KHTML, like Gecko) Chrome/92.0.4515.107 Safari/537.36" etag="snV3Ey-ip1keNrOwZyL0" version="14.9.4" type="github">
  <diagram name="Page-1" id="6133507b-19e7-1e82-6fc7-422aa6c4b21f">
    <mxGraphModel dx="2638" dy="708" grid="1" gridSize="10" guides="1" tooltips="1" connect="1" arrows="1" fold="1" page="1" pageScale="1" pageWidth="1100" pageHeight="850" background="none" math="0" shadow="0">
      <root>
        <mxCell id="0" />
        <mxCell id="1" parent="0" />
        <mxCell id="78961159f06e98e8-43" value="Menu&lt;br&gt;Banner" style="swimlane;html=1;fontStyle=1;align=center;verticalAlign=top;childLayout=stackLayout;horizontal=1;startSize=40;horizontalStack=0;resizeParent=1;resizeLast=0;collapsible=1;marginBottom=0;swimlaneFillColor=#ffffff;rounded=0;shadow=0;comic=0;labelBackgroundColor=none;strokeWidth=1;fillColor=none;fontFamily=Verdana;fontSize=12" parent="1" vertex="1">
          <mxGeometry x="320" y="50" width="200" height="230" as="geometry">
            <mxRectangle x="366.36" y="50" width="80" height="40" as="alternateBounds" />
          </mxGeometry>
        </mxCell>
        <mxCell id="78961159f06e98e8-44" value="+ field:&amp;nbsp;Dashboard" style="text;html=1;strokeColor=none;fillColor=none;align=left;verticalAlign=top;spacingLeft=4;spacingRight=4;whiteSpace=wrap;overflow=hidden;rotatable=0;points=[[0,0.5],[1,0.5]];portConstraint=eastwest;" parent="78961159f06e98e8-43" vertex="1">
          <mxGeometry y="40" width="200" height="26" as="geometry" />
        </mxCell>
        <mxCell id="78961159f06e98e8-45" value="+ field: Service Request" style="text;html=1;strokeColor=none;fillColor=none;align=left;verticalAlign=top;spacingLeft=4;spacingRight=4;whiteSpace=wrap;overflow=hidden;rotatable=0;points=[[0,0.5],[1,0.5]];portConstraint=eastwest;" parent="78961159f06e98e8-43" vertex="1">
          <mxGeometry y="66" width="200" height="26" as="geometry" />
        </mxCell>
        <mxCell id="Uez2oS0cG5EpuE5vD29g-21" value="+ field: Reports" style="text;strokeColor=none;fillColor=none;align=left;verticalAlign=top;spacingLeft=4;spacingRight=4;overflow=hidden;rotatable=0;points=[[0,0.5],[1,0.5]];portConstraint=eastwest;" vertex="1" parent="78961159f06e98e8-43">
          <mxGeometry y="92" width="200" height="26" as="geometry" />
        </mxCell>
        <mxCell id="Uez2oS0cG5EpuE5vD29g-22" value="+ field: Support" style="text;strokeColor=none;fillColor=none;align=left;verticalAlign=top;spacingLeft=4;spacingRight=4;overflow=hidden;rotatable=0;points=[[0,0.5],[1,0.5]];portConstraint=eastwest;" vertex="1" parent="78961159f06e98e8-43">
          <mxGeometry y="118" width="200" height="26" as="geometry" />
        </mxCell>
        <mxCell id="Uez2oS0cG5EpuE5vD29g-23" value="+ field: System" style="text;strokeColor=none;fillColor=none;align=left;verticalAlign=top;spacingLeft=4;spacingRight=4;overflow=hidden;rotatable=0;points=[[0,0.5],[1,0.5]];portConstraint=eastwest;" vertex="1" parent="78961159f06e98e8-43">
          <mxGeometry y="144" width="200" height="26" as="geometry" />
        </mxCell>
        <mxCell id="Uez2oS0cG5EpuE5vD29g-24" value="+ field: Admin" style="text;strokeColor=none;fillColor=none;align=left;verticalAlign=top;spacingLeft=4;spacingRight=4;overflow=hidden;rotatable=0;points=[[0,0.5],[1,0.5]];portConstraint=eastwest;" vertex="1" parent="78961159f06e98e8-43">
          <mxGeometry y="170" width="200" height="26" as="geometry" />
        </mxCell>
        <mxCell id="78961159f06e98e8-51" value="" style="line;html=1;strokeWidth=1;fillColor=none;align=left;verticalAlign=middle;spacingTop=-1;spacingLeft=3;spacingRight=3;rotatable=0;labelPosition=right;points=[];portConstraint=eastwest;" parent="78961159f06e98e8-43" vertex="1">
          <mxGeometry y="196" width="200" height="8" as="geometry" />
        </mxCell>
        <mxCell id="b94bc138ca980ef-2" value="+ Click outside of banner" style="text;html=1;strokeColor=none;fillColor=none;align=left;verticalAlign=top;spacingLeft=4;spacingRight=4;whiteSpace=wrap;overflow=hidden;rotatable=0;points=[[0,0.5],[1,0.5]];portConstraint=eastwest;" parent="78961159f06e98e8-43" vertex="1">
          <mxGeometry y="204" width="200" height="26" as="geometry" />
        </mxCell>
        <mxCell id="78961159f06e98e8-82" value="Support Page" style="swimlane;html=1;fontStyle=1;align=center;verticalAlign=top;childLayout=stackLayout;horizontal=1;startSize=26;horizontalStack=0;resizeParent=1;resizeLast=0;collapsible=1;marginBottom=0;swimlaneFillColor=#ffffff;rounded=0;shadow=0;comic=0;labelBackgroundColor=none;strokeWidth=1;fillColor=none;fontFamily=Verdana;fontSize=12" parent="1" vertex="1" collapsed="1">
          <mxGeometry x="745" y="168" width="120" height="26" as="geometry">
            <mxRectangle x="700" y="449" width="160" height="142" as="alternateBounds" />
          </mxGeometry>
        </mxCell>
        <mxCell id="78961159f06e98e8-84" value="+ field: type" style="text;html=1;strokeColor=none;fillColor=none;align=left;verticalAlign=top;spacingLeft=4;spacingRight=4;whiteSpace=wrap;overflow=hidden;rotatable=0;points=[[0,0.5],[1,0.5]];portConstraint=eastwest;" parent="78961159f06e98e8-82" vertex="1">
          <mxGeometry y="26" width="120" height="26" as="geometry" />
        </mxCell>
        <mxCell id="78961159f06e98e8-89" value="+ field: type" style="text;html=1;strokeColor=none;fillColor=none;align=left;verticalAlign=top;spacingLeft=4;spacingRight=4;whiteSpace=wrap;overflow=hidden;rotatable=0;points=[[0,0.5],[1,0.5]];portConstraint=eastwest;" parent="78961159f06e98e8-82" vertex="1">
          <mxGeometry y="52" width="120" height="26" as="geometry" />
        </mxCell>
        <mxCell id="78961159f06e98e8-90" value="" style="line;html=1;strokeWidth=1;fillColor=none;align=left;verticalAlign=middle;spacingTop=-1;spacingLeft=3;spacingRight=3;rotatable=0;labelPosition=right;points=[];portConstraint=eastwest;" parent="78961159f06e98e8-82" vertex="1">
          <mxGeometry y="78" width="120" height="8" as="geometry" />
        </mxCell>
        <mxCell id="78961159f06e98e8-94" value="+ method(type): type" style="text;html=1;strokeColor=none;fillColor=none;align=left;verticalAlign=top;spacingLeft=4;spacingRight=4;whiteSpace=wrap;overflow=hidden;rotatable=0;points=[[0,0.5],[1,0.5]];portConstraint=eastwest;" parent="78961159f06e98e8-82" vertex="1">
          <mxGeometry y="86" width="120" height="26" as="geometry" />
        </mxCell>
        <mxCell id="b94bc138ca980ef-4" value="+ method(type): type" style="text;html=1;strokeColor=none;fillColor=none;align=left;verticalAlign=top;spacingLeft=4;spacingRight=4;whiteSpace=wrap;overflow=hidden;rotatable=0;points=[[0,0.5],[1,0.5]];portConstraint=eastwest;" parent="78961159f06e98e8-82" vertex="1">
          <mxGeometry y="112" width="120" height="26" as="geometry" />
        </mxCell>
        <mxCell id="78961159f06e98e8-95" value="Language&lt;br&gt;Popup" style="swimlane;html=1;fontStyle=1;align=center;verticalAlign=top;childLayout=stackLayout;horizontal=1;startSize=40;horizontalStack=0;resizeParent=1;resizeLast=0;collapsible=1;marginBottom=0;swimlaneFillColor=#ffffff;rounded=0;shadow=0;comic=0;labelBackgroundColor=none;strokeWidth=1;fillColor=none;fontFamily=Verdana;fontSize=12" parent="1" vertex="1">
          <mxGeometry x="743.64" y="453" width="160" height="204" as="geometry" />
        </mxCell>
        <mxCell id="78961159f06e98e8-96" value="+ field: Language dropdown" style="text;html=1;strokeColor=none;fillColor=none;align=left;verticalAlign=top;spacingLeft=4;spacingRight=4;whiteSpace=wrap;overflow=hidden;rotatable=0;points=[[0,0.5],[1,0.5]];portConstraint=eastwest;" parent="78961159f06e98e8-95" vertex="1">
          <mxGeometry y="40" width="160" height="26" as="geometry" />
        </mxCell>
        <mxCell id="Uez2oS0cG5EpuE5vD29g-78" value="+ field: OK" style="text;html=1;strokeColor=none;fillColor=none;align=left;verticalAlign=top;spacingLeft=4;spacingRight=4;whiteSpace=wrap;overflow=hidden;rotatable=0;points=[[0,0.5],[1,0.5]];portConstraint=eastwest;" vertex="1" parent="78961159f06e98e8-95">
          <mxGeometry y="66" width="160" height="26" as="geometry" />
        </mxCell>
        <mxCell id="Uez2oS0cG5EpuE5vD29g-117" value="+ field: Cancel" style="text;html=1;strokeColor=none;fillColor=none;align=left;verticalAlign=top;spacingLeft=4;spacingRight=4;whiteSpace=wrap;overflow=hidden;rotatable=0;points=[[0,0.5],[1,0.5]];portConstraint=eastwest;" vertex="1" parent="78961159f06e98e8-95">
          <mxGeometry y="92" width="160" height="26" as="geometry" />
        </mxCell>
        <mxCell id="78961159f06e98e8-102" value="+ field: &quot;X&quot; - Close" style="text;html=1;strokeColor=none;fillColor=none;align=left;verticalAlign=top;spacingLeft=4;spacingRight=4;whiteSpace=wrap;overflow=hidden;rotatable=0;points=[[0,0.5],[1,0.5]];portConstraint=eastwest;" parent="78961159f06e98e8-95" vertex="1">
          <mxGeometry y="118" width="160" height="26" as="geometry" />
        </mxCell>
        <mxCell id="78961159f06e98e8-103" value="" style="line;html=1;strokeWidth=1;fillColor=none;align=left;verticalAlign=middle;spacingTop=-1;spacingLeft=3;spacingRight=3;rotatable=0;labelPosition=right;points=[];portConstraint=eastwest;" parent="78961159f06e98e8-95" vertex="1">
          <mxGeometry y="144" width="160" height="8" as="geometry" />
        </mxCell>
        <mxCell id="Uez2oS0cG5EpuE5vD29g-101" value="+ method(OK): &lt;u&gt;TBD&lt;/u&gt;" style="text;html=1;strokeColor=none;fillColor=none;align=left;verticalAlign=top;spacingLeft=4;spacingRight=4;whiteSpace=wrap;overflow=hidden;rotatable=0;points=[[0,0.5],[1,0.5]];portConstraint=eastwest;" vertex="1" parent="78961159f06e98e8-95">
          <mxGeometry y="152" width="160" height="26" as="geometry" />
        </mxCell>
        <mxCell id="78961159f06e98e8-104" value="Click outside of Popup" style="text;html=1;strokeColor=none;fillColor=none;align=left;verticalAlign=top;spacingLeft=4;spacingRight=4;whiteSpace=wrap;overflow=hidden;rotatable=0;points=[[0,0.5],[1,0.5]];portConstraint=eastwest;" parent="78961159f06e98e8-95" vertex="1">
          <mxGeometry y="178" width="160" height="26" as="geometry" />
        </mxCell>
        <mxCell id="78961159f06e98e8-108" value="User Profile&lt;br&gt;Dropdown Menu" style="swimlane;html=1;fontStyle=1;align=center;verticalAlign=top;childLayout=stackLayout;horizontal=1;startSize=43;horizontalStack=0;resizeParent=1;resizeLast=0;collapsible=1;marginBottom=0;swimlaneFillColor=#ffffff;rounded=0;shadow=0;comic=0;labelBackgroundColor=none;strokeWidth=1;fillColor=none;fontFamily=Verdana;fontSize=12" parent="1" vertex="1">
          <mxGeometry x="320" y="317" width="200" height="181" as="geometry" />
        </mxCell>
        <mxCell id="78961159f06e98e8-109" value="+ field: User Profile" style="text;html=1;strokeColor=none;fillColor=none;align=left;verticalAlign=top;spacingLeft=4;spacingRight=4;whiteSpace=wrap;overflow=hidden;rotatable=0;points=[[0,0.5],[1,0.5]];portConstraint=eastwest;" parent="78961159f06e98e8-108" vertex="1">
          <mxGeometry y="43" width="200" height="26" as="geometry" />
        </mxCell>
        <mxCell id="Uez2oS0cG5EpuE5vD29g-59" value="+ field: Log out" style="text;html=1;strokeColor=none;fillColor=none;align=left;verticalAlign=top;spacingLeft=4;spacingRight=4;whiteSpace=wrap;overflow=hidden;rotatable=0;points=[[0,0.5],[1,0.5]];portConstraint=eastwest;" vertex="1" parent="78961159f06e98e8-108">
          <mxGeometry y="69" width="200" height="26" as="geometry" />
        </mxCell>
        <mxCell id="78961159f06e98e8-110" value="+ field: Language" style="text;html=1;strokeColor=none;fillColor=none;align=left;verticalAlign=top;spacingLeft=4;spacingRight=4;whiteSpace=wrap;overflow=hidden;rotatable=0;points=[[0,0.5],[1,0.5]];portConstraint=eastwest;" parent="78961159f06e98e8-108" vertex="1">
          <mxGeometry y="95" width="200" height="26" as="geometry" />
        </mxCell>
        <mxCell id="78961159f06e98e8-116" value="" style="line;html=1;strokeWidth=1;fillColor=none;align=left;verticalAlign=middle;spacingTop=-1;spacingLeft=3;spacingRight=3;rotatable=0;labelPosition=right;points=[];portConstraint=eastwest;" parent="78961159f06e98e8-108" vertex="1">
          <mxGeometry y="121" width="200" height="8" as="geometry" />
        </mxCell>
        <mxCell id="Uez2oS0cG5EpuE5vD29g-97" value="+ method(Log out): &lt;u&gt;TBD&lt;/u&gt;&amp;nbsp;" style="text;html=1;strokeColor=none;fillColor=none;align=left;verticalAlign=top;spacingLeft=4;spacingRight=4;whiteSpace=wrap;overflow=hidden;rotatable=0;points=[[0,0.5],[1,0.5]];portConstraint=eastwest;" vertex="1" parent="78961159f06e98e8-108">
          <mxGeometry y="129" width="200" height="26" as="geometry" />
        </mxCell>
        <mxCell id="78961159f06e98e8-117" value="+ Click outside of banner" style="text;html=1;strokeColor=none;fillColor=none;align=left;verticalAlign=top;spacingLeft=4;spacingRight=4;whiteSpace=wrap;overflow=hidden;rotatable=0;points=[[0,0.5],[1,0.5]];portConstraint=eastwest;" parent="78961159f06e98e8-108" vertex="1">
          <mxGeometry y="155" width="200" height="26" as="geometry" />
        </mxCell>
        <mxCell id="Uez2oS0cG5EpuE5vD29g-6" value="Dashboard&lt;br&gt;Page" style="swimlane;html=1;fontStyle=1;align=center;verticalAlign=top;childLayout=stackLayout;horizontal=1;startSize=37;horizontalStack=0;resizeParent=1;resizeLast=0;collapsible=1;marginBottom=0;swimlaneFillColor=#ffffff;rounded=0;shadow=0;comic=0;labelBackgroundColor=none;strokeWidth=1;fillColor=none;fontFamily=Verdana;fontSize=12" vertex="1" parent="1">
          <mxGeometry x="-40" y="463" width="180" height="211" as="geometry">
            <mxRectangle x="35" y="436" width="100" height="26" as="alternateBounds" />
          </mxGeometry>
        </mxCell>
        <mxCell id="Uez2oS0cG5EpuE5vD29g-7" value="+ field:&amp;nbsp;Menu" style="text;html=1;strokeColor=none;fillColor=none;align=left;verticalAlign=top;spacingLeft=4;spacingRight=4;whiteSpace=wrap;overflow=hidden;rotatable=0;points=[[0,0.5],[1,0.5]];portConstraint=eastwest;" vertex="1" parent="Uez2oS0cG5EpuE5vD29g-6">
          <mxGeometry y="37" width="180" height="26" as="geometry" />
        </mxCell>
        <mxCell id="Uez2oS0cG5EpuE5vD29g-8" value="+ field:&amp;nbsp;User Profile" style="text;html=1;strokeColor=none;fillColor=none;align=left;verticalAlign=top;spacingLeft=4;spacingRight=4;whiteSpace=wrap;overflow=hidden;rotatable=0;points=[[0,0.5],[1,0.5]];portConstraint=eastwest;" vertex="1" parent="Uez2oS0cG5EpuE5vD29g-6">
          <mxGeometry y="63" width="180" height="26" as="geometry" />
        </mxCell>
        <mxCell id="Uez2oS0cG5EpuE5vD29g-9" value="+ field:: Dashboard Conf." style="text;strokeColor=none;fillColor=none;align=left;verticalAlign=top;spacingLeft=4;spacingRight=4;overflow=hidden;rotatable=0;points=[[0,0.5],[1,0.5]];portConstraint=eastwest;" vertex="1" parent="Uez2oS0cG5EpuE5vD29g-6">
          <mxGeometry y="89" width="180" height="26" as="geometry" />
        </mxCell>
        <mxCell id="Uez2oS0cG5EpuE5vD29g-18" value="+ field: Show all alerts" style="text;strokeColor=none;fillColor=none;align=left;verticalAlign=top;spacingLeft=4;spacingRight=4;overflow=hidden;rotatable=0;points=[[0,0.5],[1,0.5]];portConstraint=eastwest;" vertex="1" parent="Uez2oS0cG5EpuE5vD29g-6">
          <mxGeometry y="115" width="180" height="26" as="geometry" />
        </mxCell>
        <mxCell id="Uez2oS0cG5EpuE5vD29g-10" value="+ field [multi]:&amp;nbsp;Instrument LVL 1" style="text;html=1;strokeColor=none;fillColor=none;align=left;verticalAlign=top;spacingLeft=4;spacingRight=4;whiteSpace=wrap;overflow=hidden;rotatable=0;points=[[0,0.5],[1,0.5]];portConstraint=eastwest;" vertex="1" parent="Uez2oS0cG5EpuE5vD29g-6">
          <mxGeometry y="141" width="180" height="26" as="geometry" />
        </mxCell>
        <mxCell id="Uez2oS0cG5EpuE5vD29g-11" value="" style="line;html=1;strokeWidth=1;fillColor=none;align=left;verticalAlign=middle;spacingTop=-1;spacingLeft=3;spacingRight=3;rotatable=0;labelPosition=right;points=[];portConstraint=eastwest;" vertex="1" parent="Uez2oS0cG5EpuE5vD29g-6">
          <mxGeometry y="167" width="180" height="8" as="geometry" />
        </mxCell>
        <mxCell id="Uez2oS0cG5EpuE5vD29g-12" value="+ method(mouse over): highlight Instrument LVL1" style="text;html=1;strokeColor=none;fillColor=none;align=left;verticalAlign=top;spacingLeft=4;spacingRight=4;whiteSpace=wrap;overflow=hidden;rotatable=0;points=[[0,0.5],[1,0.5]];portConstraint=eastwest;" vertex="1" parent="Uez2oS0cG5EpuE5vD29g-6">
          <mxGeometry y="175" width="180" height="36" as="geometry" />
        </mxCell>
        <mxCell id="Uez2oS0cG5EpuE5vD29g-14" value="" style="endArrow=classic;html=1;exitX=1;exitY=0.5;exitDx=0;exitDy=0;entryX=0;entryY=0.5;entryDx=0;entryDy=0;" edge="1" parent="1" source="Uez2oS0cG5EpuE5vD29g-7" target="Uez2oS0cG5EpuE5vD29g-21">
          <mxGeometry relative="1" as="geometry">
            <mxPoint x="245" y="410" as="sourcePoint" />
            <mxPoint x="405" y="410" as="targetPoint" />
          </mxGeometry>
        </mxCell>
        <mxCell id="Uez2oS0cG5EpuE5vD29g-15" value="Left Banner" style="edgeLabel;resizable=0;html=1;align=center;verticalAlign=middle;" connectable="0" vertex="1" parent="Uez2oS0cG5EpuE5vD29g-14">
          <mxGeometry relative="1" as="geometry" />
        </mxCell>
        <mxCell id="Uez2oS0cG5EpuE5vD29g-28" value="" style="shape=image;html=1;verticalAlign=top;verticalLabelPosition=bottom;labelBackgroundColor=#ffffff;imageAspect=0;aspect=fixed;image=https://cdn4.iconfinder.com/data/icons/evil-icons-user-interface/64/close2-128.png" vertex="1" parent="1">
          <mxGeometry x="559.36" y="89" width="28" height="28" as="geometry" />
        </mxCell>
        <mxCell id="Uez2oS0cG5EpuE5vD29g-29" style="edgeStyle=orthogonalEdgeStyle;rounded=0;orthogonalLoop=1;jettySize=auto;html=1;entryX=0;entryY=0.5;entryDx=0;entryDy=0;" edge="1" parent="1" source="78961159f06e98e8-44" target="Uez2oS0cG5EpuE5vD29g-28">
          <mxGeometry relative="1" as="geometry">
            <mxPoint x="586.36" y="80" as="targetPoint" />
          </mxGeometry>
        </mxCell>
        <mxCell id="Uez2oS0cG5EpuE5vD29g-30" value="" style="shape=image;html=1;verticalAlign=top;verticalLabelPosition=bottom;labelBackgroundColor=#ffffff;imageAspect=0;aspect=fixed;image=https://cdn4.iconfinder.com/data/icons/evil-icons-user-interface/64/close2-128.png" vertex="1" parent="1">
          <mxGeometry x="559.36" y="253" width="28" height="28" as="geometry" />
        </mxCell>
        <mxCell id="Uez2oS0cG5EpuE5vD29g-32" style="edgeStyle=orthogonalEdgeStyle;rounded=0;orthogonalLoop=1;jettySize=auto;html=1;entryX=0;entryY=0.5;entryDx=0;entryDy=0;" edge="1" parent="1" source="b94bc138ca980ef-2" target="Uez2oS0cG5EpuE5vD29g-30">
          <mxGeometry relative="1" as="geometry" />
        </mxCell>
        <mxCell id="Uez2oS0cG5EpuE5vD29g-33" value="To Dashboard" style="text;html=1;strokeColor=none;fillColor=none;align=center;verticalAlign=middle;whiteSpace=wrap;rounded=0;" vertex="1" parent="1">
          <mxGeometry x="587.36" y="93" width="90" height="20" as="geometry" />
        </mxCell>
        <mxCell id="Uez2oS0cG5EpuE5vD29g-34" value="To Dashboard" style="text;html=1;strokeColor=none;fillColor=none;align=center;verticalAlign=middle;whiteSpace=wrap;rounded=0;" vertex="1" parent="1">
          <mxGeometry x="587.36" y="257" width="90" height="20" as="geometry" />
        </mxCell>
        <mxCell id="Uez2oS0cG5EpuE5vD29g-35" value="" style="verticalLabelPosition=bottom;verticalAlign=top;html=1;shape=mxgraph.basic.patternFillRect;fillStyle=diag;step=5;fillStrokeWidth=0.2;fillStrokeColor=#dddddd;fillColor=#FF0800;" vertex="1" parent="1">
          <mxGeometry x="605" y="120.5" width="100" height="17" as="geometry" />
        </mxCell>
        <mxCell id="Uez2oS0cG5EpuE5vD29g-36" value="Not Available" style="text;html=1;strokeColor=none;fillColor=none;align=center;verticalAlign=middle;whiteSpace=wrap;rounded=0;" vertex="1" parent="1">
          <mxGeometry x="614" y="119" width="82" height="20" as="geometry" />
        </mxCell>
        <mxCell id="Uez2oS0cG5EpuE5vD29g-37" value="" style="endArrow=classic;html=1;exitX=1;exitY=0.5;exitDx=0;exitDy=0;entryX=0;entryY=0.5;entryDx=0;entryDy=0;entryPerimeter=0;" edge="1" parent="1" source="78961159f06e98e8-45" target="Uez2oS0cG5EpuE5vD29g-35">
          <mxGeometry width="50" height="50" relative="1" as="geometry">
            <mxPoint x="536.36" y="350" as="sourcePoint" />
            <mxPoint x="586.36" y="300" as="targetPoint" />
          </mxGeometry>
        </mxCell>
        <mxCell id="Uez2oS0cG5EpuE5vD29g-38" value="" style="verticalLabelPosition=bottom;verticalAlign=top;html=1;shape=mxgraph.basic.patternFillRect;fillStyle=diag;step=5;fillStrokeWidth=0.2;fillStrokeColor=#dddddd;fillColor=#FF0800;" vertex="1" parent="1">
          <mxGeometry x="605" y="146.5" width="100" height="17" as="geometry" />
        </mxCell>
        <mxCell id="Uez2oS0cG5EpuE5vD29g-39" value="Not Available" style="text;html=1;strokeColor=none;fillColor=none;align=center;verticalAlign=middle;whiteSpace=wrap;rounded=0;" vertex="1" parent="1">
          <mxGeometry x="614" y="145" width="82" height="20" as="geometry" />
        </mxCell>
        <mxCell id="Uez2oS0cG5EpuE5vD29g-40" value="" style="endArrow=classic;html=1;exitX=1;exitY=0.5;exitDx=0;exitDy=0;entryX=0;entryY=0.5;entryDx=0;entryDy=0;entryPerimeter=0;" edge="1" parent="1" target="Uez2oS0cG5EpuE5vD29g-38" source="Uez2oS0cG5EpuE5vD29g-21">
          <mxGeometry width="50" height="50" relative="1" as="geometry">
            <mxPoint x="526.36" y="150" as="sourcePoint" />
            <mxPoint x="586.36" y="335" as="targetPoint" />
          </mxGeometry>
        </mxCell>
        <mxCell id="Uez2oS0cG5EpuE5vD29g-43" value="" style="endArrow=block;dashed=1;endFill=0;endSize=12;html=1;exitX=1;exitY=0.5;exitDx=0;exitDy=0;entryX=0;entryY=0.5;entryDx=0;entryDy=0;" edge="1" parent="1" source="Uez2oS0cG5EpuE5vD29g-22" target="78961159f06e98e8-82">
          <mxGeometry width="160" relative="1" as="geometry">
            <mxPoint x="476.36" y="320" as="sourcePoint" />
            <mxPoint x="745" y="167" as="targetPoint" />
          </mxGeometry>
        </mxCell>
        <mxCell id="Uez2oS0cG5EpuE5vD29g-44" value="System Module" style="swimlane;html=1;fontStyle=1;align=center;verticalAlign=top;childLayout=stackLayout;horizontal=1;startSize=26;horizontalStack=0;resizeParent=1;resizeLast=0;collapsible=1;marginBottom=0;swimlaneFillColor=#ffffff;rounded=0;shadow=0;comic=0;labelBackgroundColor=none;strokeWidth=1;fillColor=none;fontFamily=Verdana;fontSize=12" vertex="1" collapsed="1" parent="1">
          <mxGeometry x="745" y="194" width="120" height="26" as="geometry">
            <mxRectangle x="700" y="449" width="160" height="142" as="alternateBounds" />
          </mxGeometry>
        </mxCell>
        <mxCell id="Uez2oS0cG5EpuE5vD29g-45" value="+ field: type" style="text;html=1;strokeColor=none;fillColor=none;align=left;verticalAlign=top;spacingLeft=4;spacingRight=4;whiteSpace=wrap;overflow=hidden;rotatable=0;points=[[0,0.5],[1,0.5]];portConstraint=eastwest;" vertex="1" parent="Uez2oS0cG5EpuE5vD29g-44">
          <mxGeometry y="26" width="120" height="26" as="geometry" />
        </mxCell>
        <mxCell id="Uez2oS0cG5EpuE5vD29g-46" value="+ field: type" style="text;html=1;strokeColor=none;fillColor=none;align=left;verticalAlign=top;spacingLeft=4;spacingRight=4;whiteSpace=wrap;overflow=hidden;rotatable=0;points=[[0,0.5],[1,0.5]];portConstraint=eastwest;" vertex="1" parent="Uez2oS0cG5EpuE5vD29g-44">
          <mxGeometry y="52" width="120" height="26" as="geometry" />
        </mxCell>
        <mxCell id="Uez2oS0cG5EpuE5vD29g-47" value="" style="line;html=1;strokeWidth=1;fillColor=none;align=left;verticalAlign=middle;spacingTop=-1;spacingLeft=3;spacingRight=3;rotatable=0;labelPosition=right;points=[];portConstraint=eastwest;" vertex="1" parent="Uez2oS0cG5EpuE5vD29g-44">
          <mxGeometry y="78" width="120" height="8" as="geometry" />
        </mxCell>
        <mxCell id="Uez2oS0cG5EpuE5vD29g-48" value="+ method(type): type" style="text;html=1;strokeColor=none;fillColor=none;align=left;verticalAlign=top;spacingLeft=4;spacingRight=4;whiteSpace=wrap;overflow=hidden;rotatable=0;points=[[0,0.5],[1,0.5]];portConstraint=eastwest;" vertex="1" parent="Uez2oS0cG5EpuE5vD29g-44">
          <mxGeometry y="86" width="120" height="26" as="geometry" />
        </mxCell>
        <mxCell id="Uez2oS0cG5EpuE5vD29g-49" value="+ method(type): type" style="text;html=1;strokeColor=none;fillColor=none;align=left;verticalAlign=top;spacingLeft=4;spacingRight=4;whiteSpace=wrap;overflow=hidden;rotatable=0;points=[[0,0.5],[1,0.5]];portConstraint=eastwest;" vertex="1" parent="Uez2oS0cG5EpuE5vD29g-44">
          <mxGeometry y="112" width="120" height="26" as="geometry" />
        </mxCell>
        <mxCell id="Uez2oS0cG5EpuE5vD29g-50" value="" style="endArrow=block;dashed=1;endFill=0;endSize=12;html=1;entryX=0;entryY=0.5;entryDx=0;entryDy=0;" edge="1" parent="1" source="Uez2oS0cG5EpuE5vD29g-23" target="Uez2oS0cG5EpuE5vD29g-44">
          <mxGeometry width="160" relative="1" as="geometry">
            <mxPoint x="526.3600000000001" y="193" as="sourcePoint" />
            <mxPoint x="745" y="193" as="targetPoint" />
          </mxGeometry>
        </mxCell>
        <mxCell id="Uez2oS0cG5EpuE5vD29g-51" value="Admin Module" style="swimlane;html=1;fontStyle=1;align=center;verticalAlign=top;childLayout=stackLayout;horizontal=1;startSize=26;horizontalStack=0;resizeParent=1;resizeLast=0;collapsible=1;marginBottom=0;swimlaneFillColor=#ffffff;rounded=0;shadow=0;comic=0;labelBackgroundColor=none;strokeWidth=1;fillColor=none;fontFamily=Verdana;fontSize=12" vertex="1" collapsed="1" parent="1">
          <mxGeometry x="745" y="220" width="120" height="26" as="geometry">
            <mxRectangle x="700" y="449" width="160" height="142" as="alternateBounds" />
          </mxGeometry>
        </mxCell>
        <mxCell id="Uez2oS0cG5EpuE5vD29g-52" value="+ field: type" style="text;html=1;strokeColor=none;fillColor=none;align=left;verticalAlign=top;spacingLeft=4;spacingRight=4;whiteSpace=wrap;overflow=hidden;rotatable=0;points=[[0,0.5],[1,0.5]];portConstraint=eastwest;" vertex="1" parent="Uez2oS0cG5EpuE5vD29g-51">
          <mxGeometry y="26" width="120" height="26" as="geometry" />
        </mxCell>
        <mxCell id="Uez2oS0cG5EpuE5vD29g-53" value="+ field: type" style="text;html=1;strokeColor=none;fillColor=none;align=left;verticalAlign=top;spacingLeft=4;spacingRight=4;whiteSpace=wrap;overflow=hidden;rotatable=0;points=[[0,0.5],[1,0.5]];portConstraint=eastwest;" vertex="1" parent="Uez2oS0cG5EpuE5vD29g-51">
          <mxGeometry y="52" width="120" height="26" as="geometry" />
        </mxCell>
        <mxCell id="Uez2oS0cG5EpuE5vD29g-54" value="" style="line;html=1;strokeWidth=1;fillColor=none;align=left;verticalAlign=middle;spacingTop=-1;spacingLeft=3;spacingRight=3;rotatable=0;labelPosition=right;points=[];portConstraint=eastwest;" vertex="1" parent="Uez2oS0cG5EpuE5vD29g-51">
          <mxGeometry y="78" width="120" height="8" as="geometry" />
        </mxCell>
        <mxCell id="Uez2oS0cG5EpuE5vD29g-55" value="+ method(type): type" style="text;html=1;strokeColor=none;fillColor=none;align=left;verticalAlign=top;spacingLeft=4;spacingRight=4;whiteSpace=wrap;overflow=hidden;rotatable=0;points=[[0,0.5],[1,0.5]];portConstraint=eastwest;" vertex="1" parent="Uez2oS0cG5EpuE5vD29g-51">
          <mxGeometry y="86" width="120" height="26" as="geometry" />
        </mxCell>
        <mxCell id="Uez2oS0cG5EpuE5vD29g-56" value="+ method(type): type" style="text;html=1;strokeColor=none;fillColor=none;align=left;verticalAlign=top;spacingLeft=4;spacingRight=4;whiteSpace=wrap;overflow=hidden;rotatable=0;points=[[0,0.5],[1,0.5]];portConstraint=eastwest;" vertex="1" parent="Uez2oS0cG5EpuE5vD29g-51">
          <mxGeometry y="112" width="120" height="26" as="geometry" />
        </mxCell>
        <mxCell id="Uez2oS0cG5EpuE5vD29g-57" value="" style="endArrow=block;dashed=1;endFill=0;endSize=12;html=1;entryX=0;entryY=0.5;entryDx=0;entryDy=0;" edge="1" parent="1" source="Uez2oS0cG5EpuE5vD29g-24" target="Uez2oS0cG5EpuE5vD29g-51">
          <mxGeometry width="160" relative="1" as="geometry">
            <mxPoint x="526.3600000000001" y="219" as="sourcePoint" />
            <mxPoint x="745" y="219" as="targetPoint" />
          </mxGeometry>
        </mxCell>
        <mxCell id="Uez2oS0cG5EpuE5vD29g-60" value="" style="verticalLabelPosition=bottom;verticalAlign=top;html=1;shape=mxgraph.basic.patternFillRect;fillStyle=diag;step=5;fillStrokeWidth=0.2;fillStrokeColor=#dddddd;fillColor=#FF0800;" vertex="1" parent="1">
          <mxGeometry x="603.64" y="364.5" width="100" height="17" as="geometry" />
        </mxCell>
        <mxCell id="Uez2oS0cG5EpuE5vD29g-61" value="Not Available" style="text;html=1;strokeColor=none;fillColor=none;align=center;verticalAlign=middle;whiteSpace=wrap;rounded=0;" vertex="1" parent="1">
          <mxGeometry x="612.64" y="363" width="82" height="20" as="geometry" />
        </mxCell>
        <mxCell id="Uez2oS0cG5EpuE5vD29g-62" value="" style="endArrow=classic;html=1;exitX=1;exitY=0.5;exitDx=0;exitDy=0;entryX=0;entryY=0.5;entryDx=0;entryDy=0;entryPerimeter=0;" edge="1" parent="1" target="Uez2oS0cG5EpuE5vD29g-60" source="78961159f06e98e8-109">
          <mxGeometry width="50" height="50" relative="1" as="geometry">
            <mxPoint x="525.0000000000001" y="351" as="sourcePoint" />
            <mxPoint x="585" y="536" as="targetPoint" />
          </mxGeometry>
        </mxCell>
        <mxCell id="Uez2oS0cG5EpuE5vD29g-63" value="Support Page" style="swimlane;html=1;fontStyle=1;align=center;verticalAlign=top;childLayout=stackLayout;horizontal=1;startSize=26;horizontalStack=0;resizeParent=1;resizeLast=0;collapsible=1;marginBottom=0;swimlaneFillColor=#ffffff;rounded=0;shadow=0;comic=0;labelBackgroundColor=none;strokeWidth=1;fillColor=none;fontFamily=Verdana;fontSize=12" vertex="1" collapsed="1" parent="1">
          <mxGeometry x="743.64" y="387" width="120" height="26" as="geometry">
            <mxRectangle x="700" y="449" width="160" height="142" as="alternateBounds" />
          </mxGeometry>
        </mxCell>
        <mxCell id="Uez2oS0cG5EpuE5vD29g-64" value="+ field: type" style="text;html=1;strokeColor=none;fillColor=none;align=left;verticalAlign=top;spacingLeft=4;spacingRight=4;whiteSpace=wrap;overflow=hidden;rotatable=0;points=[[0,0.5],[1,0.5]];portConstraint=eastwest;" vertex="1" parent="Uez2oS0cG5EpuE5vD29g-63">
          <mxGeometry y="26" width="120" height="26" as="geometry" />
        </mxCell>
        <mxCell id="Uez2oS0cG5EpuE5vD29g-65" value="+ field: type" style="text;html=1;strokeColor=none;fillColor=none;align=left;verticalAlign=top;spacingLeft=4;spacingRight=4;whiteSpace=wrap;overflow=hidden;rotatable=0;points=[[0,0.5],[1,0.5]];portConstraint=eastwest;" vertex="1" parent="Uez2oS0cG5EpuE5vD29g-63">
          <mxGeometry y="52" width="120" height="26" as="geometry" />
        </mxCell>
        <mxCell id="Uez2oS0cG5EpuE5vD29g-66" value="" style="line;html=1;strokeWidth=1;fillColor=none;align=left;verticalAlign=middle;spacingTop=-1;spacingLeft=3;spacingRight=3;rotatable=0;labelPosition=right;points=[];portConstraint=eastwest;" vertex="1" parent="Uez2oS0cG5EpuE5vD29g-63">
          <mxGeometry y="78" width="120" height="8" as="geometry" />
        </mxCell>
        <mxCell id="Uez2oS0cG5EpuE5vD29g-67" value="+ method(type): type" style="text;html=1;strokeColor=none;fillColor=none;align=left;verticalAlign=top;spacingLeft=4;spacingRight=4;whiteSpace=wrap;overflow=hidden;rotatable=0;points=[[0,0.5],[1,0.5]];portConstraint=eastwest;" vertex="1" parent="Uez2oS0cG5EpuE5vD29g-63">
          <mxGeometry y="86" width="120" height="26" as="geometry" />
        </mxCell>
        <mxCell id="Uez2oS0cG5EpuE5vD29g-68" value="+ method(type): type" style="text;html=1;strokeColor=none;fillColor=none;align=left;verticalAlign=top;spacingLeft=4;spacingRight=4;whiteSpace=wrap;overflow=hidden;rotatable=0;points=[[0,0.5],[1,0.5]];portConstraint=eastwest;" vertex="1" parent="Uez2oS0cG5EpuE5vD29g-63">
          <mxGeometry y="112" width="120" height="26" as="geometry" />
        </mxCell>
        <mxCell id="Uez2oS0cG5EpuE5vD29g-69" value="" style="endArrow=block;dashed=1;endFill=0;endSize=12;html=1;" edge="1" parent="1" source="Uez2oS0cG5EpuE5vD29g-59" target="Uez2oS0cG5EpuE5vD29g-63">
          <mxGeometry width="160" relative="1" as="geometry">
            <mxPoint x="525.0000000000001" y="378" as="sourcePoint" />
            <mxPoint x="743.64" y="378" as="targetPoint" />
          </mxGeometry>
        </mxCell>
        <mxCell id="Uez2oS0cG5EpuE5vD29g-70" value="" style="endArrow=classic;html=1;exitX=1;exitY=0.5;exitDx=0;exitDy=0;entryX=0;entryY=0.5;entryDx=0;entryDy=0;" edge="1" parent="1" source="Uez2oS0cG5EpuE5vD29g-8" target="Uez2oS0cG5EpuE5vD29g-59">
          <mxGeometry relative="1" as="geometry">
            <mxPoint x="225" y="199" as="sourcePoint" />
            <mxPoint x="375.4000000000001" y="78.70000000000005" as="targetPoint" />
          </mxGeometry>
        </mxCell>
        <mxCell id="Uez2oS0cG5EpuE5vD29g-71" value="Dropdown Menu" style="edgeLabel;resizable=0;html=1;align=center;verticalAlign=middle;" connectable="0" vertex="1" parent="Uez2oS0cG5EpuE5vD29g-70">
          <mxGeometry relative="1" as="geometry" />
        </mxCell>
        <mxCell id="Uez2oS0cG5EpuE5vD29g-74" value="" style="endArrow=classic;html=1;exitX=1;exitY=0.5;exitDx=0;exitDy=0;entryX=0;entryY=0.5;entryDx=0;entryDy=0;" edge="1" parent="1" source="78961159f06e98e8-110" target="Uez2oS0cG5EpuE5vD29g-78">
          <mxGeometry relative="1" as="geometry">
            <mxPoint x="225" y="225" as="sourcePoint" />
            <mxPoint x="376.3600000000001" y="337.2011444425177" as="targetPoint" />
          </mxGeometry>
        </mxCell>
        <mxCell id="Uez2oS0cG5EpuE5vD29g-75" value="Dropdown Menu" style="edgeLabel;resizable=0;html=1;align=center;verticalAlign=middle;" connectable="0" vertex="1" parent="Uez2oS0cG5EpuE5vD29g-74">
          <mxGeometry relative="1" as="geometry" />
        </mxCell>
        <mxCell id="Uez2oS0cG5EpuE5vD29g-80" value="Language&lt;br&gt;Dropdown Menu" style="swimlane;html=1;fontStyle=1;align=center;verticalAlign=top;childLayout=stackLayout;horizontal=1;startSize=43;horizontalStack=0;resizeParent=1;resizeLast=0;collapsible=1;marginBottom=0;swimlaneFillColor=#ffffff;rounded=0;shadow=0;comic=0;labelBackgroundColor=none;strokeWidth=1;fillColor=none;fontFamily=Verdana;fontSize=12" vertex="1" parent="1">
          <mxGeometry x="1103.64" y="425" width="158.64" height="155" as="geometry">
            <mxRectangle x="1100" y="472" width="140" height="43" as="alternateBounds" />
          </mxGeometry>
        </mxCell>
        <mxCell id="Uez2oS0cG5EpuE5vD29g-81" value="+ field: English (Default)" style="text;html=1;strokeColor=none;fillColor=none;align=left;verticalAlign=top;spacingLeft=4;spacingRight=4;whiteSpace=wrap;overflow=hidden;rotatable=0;points=[[0,0.5],[1,0.5]];portConstraint=eastwest;" vertex="1" parent="Uez2oS0cG5EpuE5vD29g-80">
          <mxGeometry y="43" width="158.64" height="26" as="geometry" />
        </mxCell>
        <mxCell id="Uez2oS0cG5EpuE5vD29g-82" value="+ field: Czech" style="text;html=1;strokeColor=none;fillColor=none;align=left;verticalAlign=top;spacingLeft=4;spacingRight=4;whiteSpace=wrap;overflow=hidden;rotatable=0;points=[[0,0.5],[1,0.5]];portConstraint=eastwest;" vertex="1" parent="Uez2oS0cG5EpuE5vD29g-80">
          <mxGeometry y="69" width="158.64" height="26" as="geometry" />
        </mxCell>
        <mxCell id="Uez2oS0cG5EpuE5vD29g-84" value="" style="line;html=1;strokeWidth=1;fillColor=none;align=left;verticalAlign=middle;spacingTop=-1;spacingLeft=3;spacingRight=3;rotatable=0;labelPosition=right;points=[];portConstraint=eastwest;" vertex="1" parent="Uez2oS0cG5EpuE5vD29g-80">
          <mxGeometry y="95" width="158.64" height="8" as="geometry" />
        </mxCell>
        <mxCell id="Uez2oS0cG5EpuE5vD29g-86" value="+ method(English): &lt;u&gt;TBD&lt;/u&gt;&amp;nbsp;" style="text;html=1;strokeColor=none;fillColor=none;align=left;verticalAlign=top;spacingLeft=4;spacingRight=4;whiteSpace=wrap;overflow=hidden;rotatable=0;points=[[0,0.5],[1,0.5]];portConstraint=eastwest;" vertex="1" parent="Uez2oS0cG5EpuE5vD29g-80">
          <mxGeometry y="103" width="158.64" height="26" as="geometry" />
        </mxCell>
        <mxCell id="Uez2oS0cG5EpuE5vD29g-85" value="+ method(Czech): &lt;u&gt;TBD&lt;/u&gt;&amp;nbsp;" style="text;html=1;strokeColor=none;fillColor=none;align=left;verticalAlign=top;spacingLeft=4;spacingRight=4;whiteSpace=wrap;overflow=hidden;rotatable=0;points=[[0,0.5],[1,0.5]];portConstraint=eastwest;" vertex="1" parent="Uez2oS0cG5EpuE5vD29g-80">
          <mxGeometry y="129" width="158.64" height="26" as="geometry" />
        </mxCell>
        <mxCell id="Uez2oS0cG5EpuE5vD29g-87" value="" style="shape=image;html=1;verticalAlign=top;verticalLabelPosition=bottom;labelBackgroundColor=#ffffff;imageAspect=0;aspect=fixed;image=https://cdn4.iconfinder.com/data/icons/evil-icons-user-interface/64/close2-128.png" vertex="1" parent="1">
          <mxGeometry x="936.64" y="570" width="28" height="28" as="geometry" />
        </mxCell>
        <mxCell id="Uez2oS0cG5EpuE5vD29g-88" style="edgeStyle=orthogonalEdgeStyle;rounded=0;orthogonalLoop=1;jettySize=auto;html=1;entryX=0;entryY=0.5;entryDx=0;entryDy=0;" edge="1" parent="1" target="Uez2oS0cG5EpuE5vD29g-87" source="78961159f06e98e8-102">
          <mxGeometry relative="1" as="geometry">
            <mxPoint x="903.6400000000001" y="557" as="sourcePoint" />
          </mxGeometry>
        </mxCell>
        <mxCell id="Uez2oS0cG5EpuE5vD29g-89" value="To Dashboard" style="text;html=1;strokeColor=none;fillColor=none;align=center;verticalAlign=middle;whiteSpace=wrap;rounded=0;" vertex="1" parent="1">
          <mxGeometry x="964.64" y="574" width="90" height="20" as="geometry" />
        </mxCell>
        <mxCell id="Uez2oS0cG5EpuE5vD29g-90" value="" style="shape=image;html=1;verticalAlign=top;verticalLabelPosition=bottom;labelBackgroundColor=#ffffff;imageAspect=0;aspect=fixed;image=https://cdn4.iconfinder.com/data/icons/evil-icons-user-interface/64/close2-128.png" vertex="1" parent="1">
          <mxGeometry x="936.64" y="518" width="28" height="28" as="geometry" />
        </mxCell>
        <mxCell id="Uez2oS0cG5EpuE5vD29g-91" style="edgeStyle=orthogonalEdgeStyle;rounded=0;orthogonalLoop=1;jettySize=auto;html=1;entryX=0;entryY=0.5;entryDx=0;entryDy=0;" edge="1" parent="1" target="Uez2oS0cG5EpuE5vD29g-90" source="Uez2oS0cG5EpuE5vD29g-78">
          <mxGeometry relative="1" as="geometry">
            <mxPoint x="903.64" y="534" as="sourcePoint" />
          </mxGeometry>
        </mxCell>
        <mxCell id="Uez2oS0cG5EpuE5vD29g-92" value="To Dashboard" style="text;html=1;strokeColor=none;fillColor=none;align=center;verticalAlign=middle;whiteSpace=wrap;rounded=0;" vertex="1" parent="1">
          <mxGeometry x="964.64" y="522" width="90" height="20" as="geometry" />
        </mxCell>
        <mxCell id="Uez2oS0cG5EpuE5vD29g-93" value="" style="endArrow=classic;html=1;exitX=1;exitY=0.5;exitDx=0;exitDy=0;entryX=0;entryY=0.5;entryDx=0;entryDy=0;" edge="1" parent="1" source="78961159f06e98e8-96" target="Uez2oS0cG5EpuE5vD29g-82">
          <mxGeometry relative="1" as="geometry">
            <mxPoint x="538.64" y="388" as="sourcePoint" />
            <mxPoint x="754.6" y="481.39200000000005" as="targetPoint" />
          </mxGeometry>
        </mxCell>
        <mxCell id="Uez2oS0cG5EpuE5vD29g-94" value="Dropdown Menu" style="edgeLabel;resizable=0;html=1;align=center;verticalAlign=middle;" connectable="0" vertex="1" parent="Uez2oS0cG5EpuE5vD29g-93">
          <mxGeometry relative="1" as="geometry" />
        </mxCell>
        <mxCell id="Uez2oS0cG5EpuE5vD29g-98" value="" style="shape=image;html=1;verticalAlign=top;verticalLabelPosition=bottom;labelBackgroundColor=#ffffff;imageAspect=0;aspect=fixed;image=https://cdn4.iconfinder.com/data/icons/evil-icons-user-interface/64/close2-128.png" vertex="1" parent="1">
          <mxGeometry x="559.36" y="508" width="28" height="28" as="geometry" />
        </mxCell>
        <mxCell id="Uez2oS0cG5EpuE5vD29g-99" style="edgeStyle=orthogonalEdgeStyle;rounded=0;orthogonalLoop=1;jettySize=auto;html=1;entryX=0;entryY=0.5;entryDx=0;entryDy=0;exitX=1;exitY=0.5;exitDx=0;exitDy=0;" edge="1" parent="1" target="Uez2oS0cG5EpuE5vD29g-98" source="78961159f06e98e8-117">
          <mxGeometry relative="1" as="geometry">
            <mxPoint x="526.3600000000001" y="556" as="sourcePoint" />
            <Array as="points">
              <mxPoint x="539" y="485" />
              <mxPoint x="539" y="522" />
            </Array>
          </mxGeometry>
        </mxCell>
        <mxCell id="Uez2oS0cG5EpuE5vD29g-102" value="" style="verticalLabelPosition=bottom;verticalAlign=top;html=1;shape=mxgraph.basic.patternFillRect;fillStyle=diag;step=5;fillStrokeWidth=0.2;fillStrokeColor=#dddddd;fillColor=#FF0800;" vertex="1" parent="1">
          <mxGeometry x="982.28" y="636.5" width="100" height="17" as="geometry" />
        </mxCell>
        <mxCell id="Uez2oS0cG5EpuE5vD29g-103" value="Not Available" style="text;html=1;strokeColor=none;fillColor=none;align=center;verticalAlign=middle;whiteSpace=wrap;rounded=0;" vertex="1" parent="1">
          <mxGeometry x="991.28" y="635" width="82" height="20" as="geometry" />
        </mxCell>
        <mxCell id="Uez2oS0cG5EpuE5vD29g-104" value="" style="endArrow=classic;html=1;entryX=0;entryY=0.5;entryDx=0;entryDy=0;entryPerimeter=0;" edge="1" parent="1" target="Uez2oS0cG5EpuE5vD29g-102" source="78961159f06e98e8-104">
          <mxGeometry width="50" height="50" relative="1" as="geometry">
            <mxPoint x="903.64" y="619" as="sourcePoint" />
            <mxPoint x="963.64" y="782" as="targetPoint" />
          </mxGeometry>
        </mxCell>
        <mxCell id="Uez2oS0cG5EpuE5vD29g-105" value="" style="shape=image;html=1;verticalAlign=top;verticalLabelPosition=bottom;labelBackgroundColor=#ffffff;imageAspect=0;aspect=fixed;image=https://cdn4.iconfinder.com/data/icons/evil-icons-user-interface/64/close2-128.png" vertex="1" parent="1">
          <mxGeometry x="936.64" y="604" width="28" height="28" as="geometry" />
        </mxCell>
        <mxCell id="Uez2oS0cG5EpuE5vD29g-106" style="edgeStyle=orthogonalEdgeStyle;rounded=0;orthogonalLoop=1;jettySize=auto;html=1;entryX=0;entryY=0.5;entryDx=0;entryDy=0;" edge="1" parent="1" target="Uez2oS0cG5EpuE5vD29g-105" source="Uez2oS0cG5EpuE5vD29g-101">
          <mxGeometry relative="1" as="geometry">
            <mxPoint x="903.64" y="594" as="sourcePoint" />
          </mxGeometry>
        </mxCell>
        <mxCell id="Uez2oS0cG5EpuE5vD29g-107" value="To Dashboard" style="text;html=1;strokeColor=none;fillColor=none;align=center;verticalAlign=middle;whiteSpace=wrap;rounded=0;" vertex="1" parent="1">
          <mxGeometry x="963.64" y="608" width="91" height="20" as="geometry" />
        </mxCell>
        <mxCell id="Uez2oS0cG5EpuE5vD29g-115" value="" style="endArrow=classic;html=1;exitX=1;exitY=0.5;exitDx=0;exitDy=0;entryX=0;entryY=0.5;entryDx=0;entryDy=0;" edge="1" parent="1" source="Uez2oS0cG5EpuE5vD29g-9" target="Uez2oS0cG5EpuE5vD29g-124">
          <mxGeometry relative="1" as="geometry">
            <mxPoint x="240" y="381" as="sourcePoint" />
            <mxPoint x="366.3600000000001" y="649" as="targetPoint" />
          </mxGeometry>
        </mxCell>
        <mxCell id="Uez2oS0cG5EpuE5vD29g-116" value="Dropdown Menu" style="edgeLabel;resizable=0;html=1;align=center;verticalAlign=middle;" connectable="0" vertex="1" parent="Uez2oS0cG5EpuE5vD29g-115">
          <mxGeometry relative="1" as="geometry" />
        </mxCell>
        <mxCell id="Uez2oS0cG5EpuE5vD29g-118" value="" style="shape=image;html=1;verticalAlign=top;verticalLabelPosition=bottom;labelBackgroundColor=#ffffff;imageAspect=0;aspect=fixed;image=https://cdn4.iconfinder.com/data/icons/evil-icons-user-interface/64/close2-128.png" vertex="1" parent="1">
          <mxGeometry x="936.64" y="544" width="28" height="28" as="geometry" />
        </mxCell>
        <mxCell id="Uez2oS0cG5EpuE5vD29g-119" style="edgeStyle=orthogonalEdgeStyle;rounded=0;orthogonalLoop=1;jettySize=auto;html=1;entryX=0;entryY=0.5;entryDx=0;entryDy=0;" edge="1" parent="1" target="Uez2oS0cG5EpuE5vD29g-118" source="Uez2oS0cG5EpuE5vD29g-117">
          <mxGeometry relative="1" as="geometry">
            <mxPoint x="903.6399999999999" y="558" as="sourcePoint" />
          </mxGeometry>
        </mxCell>
        <mxCell id="Uez2oS0cG5EpuE5vD29g-120" value="To Dashboard" style="text;html=1;strokeColor=none;fillColor=none;align=center;verticalAlign=middle;whiteSpace=wrap;rounded=0;" vertex="1" parent="1">
          <mxGeometry x="964.64" y="548" width="90" height="20" as="geometry" />
        </mxCell>
        <mxCell id="Uez2oS0cG5EpuE5vD29g-121" value="Dashboard Config&lt;br&gt;Popup" style="swimlane;html=1;fontStyle=1;align=center;verticalAlign=top;childLayout=stackLayout;horizontal=1;startSize=40;horizontalStack=0;resizeParent=1;resizeLast=0;collapsible=1;marginBottom=0;swimlaneFillColor=#ffffff;rounded=0;shadow=0;comic=0;labelBackgroundColor=none;strokeWidth=1;fillColor=none;fontFamily=Verdana;fontSize=12" vertex="1" parent="1">
          <mxGeometry x="320" y="570" width="200" height="204" as="geometry" />
        </mxCell>
        <mxCell id="Uez2oS0cG5EpuE5vD29g-122" value="+ field [multi]: Instr. Check List" style="text;html=1;strokeColor=none;fillColor=none;align=left;verticalAlign=top;spacingLeft=4;spacingRight=4;whiteSpace=wrap;overflow=hidden;rotatable=0;points=[[0,0.5],[1,0.5]];portConstraint=eastwest;" vertex="1" parent="Uez2oS0cG5EpuE5vD29g-121">
          <mxGeometry y="40" width="200" height="26" as="geometry" />
        </mxCell>
        <mxCell id="Uez2oS0cG5EpuE5vD29g-123" value="+ field: OK" style="text;html=1;strokeColor=none;fillColor=none;align=left;verticalAlign=top;spacingLeft=4;spacingRight=4;whiteSpace=wrap;overflow=hidden;rotatable=0;points=[[0,0.5],[1,0.5]];portConstraint=eastwest;" vertex="1" parent="Uez2oS0cG5EpuE5vD29g-121">
          <mxGeometry y="66" width="200" height="26" as="geometry" />
        </mxCell>
        <mxCell id="Uez2oS0cG5EpuE5vD29g-124" value="+ field: Cancel" style="text;html=1;strokeColor=none;fillColor=none;align=left;verticalAlign=top;spacingLeft=4;spacingRight=4;whiteSpace=wrap;overflow=hidden;rotatable=0;points=[[0,0.5],[1,0.5]];portConstraint=eastwest;" vertex="1" parent="Uez2oS0cG5EpuE5vD29g-121">
          <mxGeometry y="92" width="200" height="26" as="geometry" />
        </mxCell>
        <mxCell id="Uez2oS0cG5EpuE5vD29g-125" value="+ field: &quot;X&quot; - Close" style="text;html=1;strokeColor=none;fillColor=none;align=left;verticalAlign=top;spacingLeft=4;spacingRight=4;whiteSpace=wrap;overflow=hidden;rotatable=0;points=[[0,0.5],[1,0.5]];portConstraint=eastwest;" vertex="1" parent="Uez2oS0cG5EpuE5vD29g-121">
          <mxGeometry y="118" width="200" height="26" as="geometry" />
        </mxCell>
        <mxCell id="Uez2oS0cG5EpuE5vD29g-126" value="" style="line;html=1;strokeWidth=1;fillColor=none;align=left;verticalAlign=middle;spacingTop=-1;spacingLeft=3;spacingRight=3;rotatable=0;labelPosition=right;points=[];portConstraint=eastwest;" vertex="1" parent="Uez2oS0cG5EpuE5vD29g-121">
          <mxGeometry y="144" width="200" height="8" as="geometry" />
        </mxCell>
        <mxCell id="Uez2oS0cG5EpuE5vD29g-127" value="+ method(OK): &lt;u&gt;TBD&lt;/u&gt;" style="text;html=1;strokeColor=none;fillColor=none;align=left;verticalAlign=top;spacingLeft=4;spacingRight=4;whiteSpace=wrap;overflow=hidden;rotatable=0;points=[[0,0.5],[1,0.5]];portConstraint=eastwest;" vertex="1" parent="Uez2oS0cG5EpuE5vD29g-121">
          <mxGeometry y="152" width="200" height="26" as="geometry" />
        </mxCell>
        <mxCell id="Uez2oS0cG5EpuE5vD29g-128" value="Click outside of Popup" style="text;html=1;strokeColor=none;fillColor=none;align=left;verticalAlign=top;spacingLeft=4;spacingRight=4;whiteSpace=wrap;overflow=hidden;rotatable=0;points=[[0,0.5],[1,0.5]];portConstraint=eastwest;" vertex="1" parent="Uez2oS0cG5EpuE5vD29g-121">
          <mxGeometry y="178" width="200" height="26" as="geometry" />
        </mxCell>
        <mxCell id="Uez2oS0cG5EpuE5vD29g-129" value="" style="shape=image;html=1;verticalAlign=top;verticalLabelPosition=bottom;labelBackgroundColor=#ffffff;imageAspect=0;aspect=fixed;image=https://cdn4.iconfinder.com/data/icons/evil-icons-user-interface/64/close2-128.png" vertex="1" parent="1">
          <mxGeometry x="559" y="687" width="28" height="28" as="geometry" />
        </mxCell>
        <mxCell id="Uez2oS0cG5EpuE5vD29g-130" style="edgeStyle=orthogonalEdgeStyle;rounded=0;orthogonalLoop=1;jettySize=auto;html=1;entryX=0;entryY=0.5;entryDx=0;entryDy=0;" edge="1" parent="1" source="Uez2oS0cG5EpuE5vD29g-125" target="Uez2oS0cG5EpuE5vD29g-129">
          <mxGeometry relative="1" as="geometry">
            <mxPoint x="526.0000000000001" y="674" as="sourcePoint" />
          </mxGeometry>
        </mxCell>
        <mxCell id="Uez2oS0cG5EpuE5vD29g-131" value="To Dashboard" style="text;html=1;strokeColor=none;fillColor=none;align=center;verticalAlign=middle;whiteSpace=wrap;rounded=0;" vertex="1" parent="1">
          <mxGeometry x="587" y="691" width="90" height="20" as="geometry" />
        </mxCell>
        <mxCell id="Uez2oS0cG5EpuE5vD29g-132" value="" style="shape=image;html=1;verticalAlign=top;verticalLabelPosition=bottom;labelBackgroundColor=#ffffff;imageAspect=0;aspect=fixed;image=https://cdn4.iconfinder.com/data/icons/evil-icons-user-interface/64/close2-128.png" vertex="1" parent="1">
          <mxGeometry x="559" y="635" width="28" height="28" as="geometry" />
        </mxCell>
        <mxCell id="Uez2oS0cG5EpuE5vD29g-133" style="edgeStyle=orthogonalEdgeStyle;rounded=0;orthogonalLoop=1;jettySize=auto;html=1;entryX=0;entryY=0.5;entryDx=0;entryDy=0;" edge="1" parent="1" source="Uez2oS0cG5EpuE5vD29g-123" target="Uez2oS0cG5EpuE5vD29g-132">
          <mxGeometry relative="1" as="geometry">
            <mxPoint x="526" y="651" as="sourcePoint" />
          </mxGeometry>
        </mxCell>
        <mxCell id="Uez2oS0cG5EpuE5vD29g-134" value="To Dashboard" style="text;html=1;strokeColor=none;fillColor=none;align=center;verticalAlign=middle;whiteSpace=wrap;rounded=0;" vertex="1" parent="1">
          <mxGeometry x="587" y="639" width="90" height="20" as="geometry" />
        </mxCell>
        <mxCell id="Uez2oS0cG5EpuE5vD29g-136" value="" style="verticalLabelPosition=bottom;verticalAlign=top;html=1;shape=mxgraph.basic.patternFillRect;fillStyle=diag;step=5;fillStrokeWidth=0.2;fillStrokeColor=#dddddd;fillColor=#FF0800;" vertex="1" parent="1">
          <mxGeometry x="604.64" y="753.5" width="100" height="17" as="geometry" />
        </mxCell>
        <mxCell id="Uez2oS0cG5EpuE5vD29g-137" value="Not Available" style="text;html=1;strokeColor=none;fillColor=none;align=center;verticalAlign=middle;whiteSpace=wrap;rounded=0;" vertex="1" parent="1">
          <mxGeometry x="613.64" y="752" width="82" height="20" as="geometry" />
        </mxCell>
        <mxCell id="Uez2oS0cG5EpuE5vD29g-138" value="" style="endArrow=classic;html=1;entryX=0;entryY=0.5;entryDx=0;entryDy=0;entryPerimeter=0;" edge="1" parent="1" source="Uez2oS0cG5EpuE5vD29g-128" target="Uez2oS0cG5EpuE5vD29g-136">
          <mxGeometry width="50" height="50" relative="1" as="geometry">
            <mxPoint x="526" y="736" as="sourcePoint" />
            <mxPoint x="586" y="899" as="targetPoint" />
          </mxGeometry>
        </mxCell>
        <mxCell id="Uez2oS0cG5EpuE5vD29g-139" value="" style="shape=image;html=1;verticalAlign=top;verticalLabelPosition=bottom;labelBackgroundColor=#ffffff;imageAspect=0;aspect=fixed;image=https://cdn4.iconfinder.com/data/icons/evil-icons-user-interface/64/close2-128.png" vertex="1" parent="1">
          <mxGeometry x="559" y="721" width="28" height="28" as="geometry" />
        </mxCell>
        <mxCell id="Uez2oS0cG5EpuE5vD29g-140" style="edgeStyle=orthogonalEdgeStyle;rounded=0;orthogonalLoop=1;jettySize=auto;html=1;entryX=0;entryY=0.5;entryDx=0;entryDy=0;" edge="1" parent="1" source="Uez2oS0cG5EpuE5vD29g-127" target="Uez2oS0cG5EpuE5vD29g-139">
          <mxGeometry relative="1" as="geometry">
            <mxPoint x="526" y="711" as="sourcePoint" />
          </mxGeometry>
        </mxCell>
        <mxCell id="Uez2oS0cG5EpuE5vD29g-141" value="To Dashboard" style="text;html=1;strokeColor=none;fillColor=none;align=center;verticalAlign=middle;whiteSpace=wrap;rounded=0;" vertex="1" parent="1">
          <mxGeometry x="586" y="725" width="91" height="20" as="geometry" />
        </mxCell>
        <mxCell id="Uez2oS0cG5EpuE5vD29g-142" value="" style="shape=image;html=1;verticalAlign=top;verticalLabelPosition=bottom;labelBackgroundColor=#ffffff;imageAspect=0;aspect=fixed;image=https://cdn4.iconfinder.com/data/icons/evil-icons-user-interface/64/close2-128.png" vertex="1" parent="1">
          <mxGeometry x="559" y="661" width="28" height="28" as="geometry" />
        </mxCell>
        <mxCell id="Uez2oS0cG5EpuE5vD29g-143" style="edgeStyle=orthogonalEdgeStyle;rounded=0;orthogonalLoop=1;jettySize=auto;html=1;entryX=0;entryY=0.5;entryDx=0;entryDy=0;" edge="1" parent="1" source="Uez2oS0cG5EpuE5vD29g-124" target="Uez2oS0cG5EpuE5vD29g-142">
          <mxGeometry relative="1" as="geometry">
            <mxPoint x="525.9999999999999" y="675" as="sourcePoint" />
          </mxGeometry>
        </mxCell>
        <mxCell id="Uez2oS0cG5EpuE5vD29g-144" value="To Dashboard" style="text;html=1;strokeColor=none;fillColor=none;align=center;verticalAlign=middle;whiteSpace=wrap;rounded=0;" vertex="1" parent="1">
          <mxGeometry x="587" y="665" width="90" height="20" as="geometry" />
        </mxCell>
        <mxCell id="Uez2oS0cG5EpuE5vD29g-152" value="Alert&lt;br&gt;Page" style="swimlane;html=1;fontStyle=1;align=center;verticalAlign=top;childLayout=stackLayout;horizontal=1;startSize=40;horizontalStack=0;resizeParent=1;resizeLast=0;collapsible=1;marginBottom=0;swimlaneFillColor=#ffffff;rounded=0;shadow=0;comic=0;labelBackgroundColor=none;strokeWidth=1;fillColor=none;fontFamily=Verdana;fontSize=12" vertex="1" collapsed="1" parent="1">
          <mxGeometry x="320" y="810" width="201.36" height="40" as="geometry">
            <mxRectangle x="320" y="810" width="200" height="152" as="alternateBounds" />
          </mxGeometry>
        </mxCell>
        <mxCell id="Uez2oS0cG5EpuE5vD29g-153" value="+ field: type" style="text;html=1;strokeColor=none;fillColor=none;align=left;verticalAlign=top;spacingLeft=4;spacingRight=4;whiteSpace=wrap;overflow=hidden;rotatable=0;points=[[0,0.5],[1,0.5]];portConstraint=eastwest;" vertex="1" parent="Uez2oS0cG5EpuE5vD29g-152">
          <mxGeometry y="40" width="201.36" height="26" as="geometry" />
        </mxCell>
        <mxCell id="Uez2oS0cG5EpuE5vD29g-154" value="+ field: type" style="text;html=1;strokeColor=none;fillColor=none;align=left;verticalAlign=top;spacingLeft=4;spacingRight=4;whiteSpace=wrap;overflow=hidden;rotatable=0;points=[[0,0.5],[1,0.5]];portConstraint=eastwest;" vertex="1" parent="Uez2oS0cG5EpuE5vD29g-152">
          <mxGeometry y="66" width="201.36" height="26" as="geometry" />
        </mxCell>
        <mxCell id="Uez2oS0cG5EpuE5vD29g-155" value="" style="line;html=1;strokeWidth=1;fillColor=none;align=left;verticalAlign=middle;spacingTop=-1;spacingLeft=3;spacingRight=3;rotatable=0;labelPosition=right;points=[];portConstraint=eastwest;" vertex="1" parent="Uez2oS0cG5EpuE5vD29g-152">
          <mxGeometry y="92" width="201.36" height="8" as="geometry" />
        </mxCell>
        <mxCell id="Uez2oS0cG5EpuE5vD29g-156" value="+ method(type): type" style="text;html=1;strokeColor=none;fillColor=none;align=left;verticalAlign=top;spacingLeft=4;spacingRight=4;whiteSpace=wrap;overflow=hidden;rotatable=0;points=[[0,0.5],[1,0.5]];portConstraint=eastwest;" vertex="1" parent="Uez2oS0cG5EpuE5vD29g-152">
          <mxGeometry y="100" width="201.36" height="26" as="geometry" />
        </mxCell>
        <mxCell id="Uez2oS0cG5EpuE5vD29g-157" value="+ method(type): type" style="text;html=1;strokeColor=none;fillColor=none;align=left;verticalAlign=top;spacingLeft=4;spacingRight=4;whiteSpace=wrap;overflow=hidden;rotatable=0;points=[[0,0.5],[1,0.5]];portConstraint=eastwest;" vertex="1" parent="Uez2oS0cG5EpuE5vD29g-152">
          <mxGeometry y="126" width="201.36" height="26" as="geometry" />
        </mxCell>
        <mxCell id="Uez2oS0cG5EpuE5vD29g-158" value="" style="endArrow=block;dashed=1;endFill=0;endSize=12;html=1;exitX=1;exitY=0.5;exitDx=0;exitDy=0;entryX=0;entryY=0.5;entryDx=0;entryDy=0;" edge="1" parent="1" target="Uez2oS0cG5EpuE5vD29g-152" source="Uez2oS0cG5EpuE5vD29g-18">
          <mxGeometry width="160" relative="1" as="geometry">
            <mxPoint x="100" y="822.2689300519494" as="sourcePoint" />
            <mxPoint x="318.64" y="801" as="targetPoint" />
          </mxGeometry>
        </mxCell>
        <mxCell id="Uez2oS0cG5EpuE5vD29g-159" value="Instrument LVL 2&lt;br&gt;Page" style="swimlane;html=1;fontStyle=1;align=center;verticalAlign=top;childLayout=stackLayout;horizontal=1;startSize=50;horizontalStack=0;resizeParent=1;resizeLast=0;collapsible=1;marginBottom=0;swimlaneFillColor=#ffffff;rounded=0;shadow=0;comic=0;labelBackgroundColor=none;strokeWidth=1;fillColor=none;fontFamily=Verdana;fontSize=12" vertex="1" collapsed="1" parent="1">
          <mxGeometry x="318.64" y="970" width="201.36" height="40" as="geometry">
            <mxRectangle x="320" y="810" width="158.64" height="142" as="alternateBounds" />
          </mxGeometry>
        </mxCell>
        <mxCell id="Uez2oS0cG5EpuE5vD29g-160" value="+ field: type" style="text;html=1;strokeColor=none;fillColor=none;align=left;verticalAlign=top;spacingLeft=4;spacingRight=4;whiteSpace=wrap;overflow=hidden;rotatable=0;points=[[0,0.5],[1,0.5]];portConstraint=eastwest;" vertex="1" parent="Uez2oS0cG5EpuE5vD29g-159">
          <mxGeometry y="40" width="201.36" height="26" as="geometry" />
        </mxCell>
        <mxCell id="Uez2oS0cG5EpuE5vD29g-161" value="+ field: type" style="text;html=1;strokeColor=none;fillColor=none;align=left;verticalAlign=top;spacingLeft=4;spacingRight=4;whiteSpace=wrap;overflow=hidden;rotatable=0;points=[[0,0.5],[1,0.5]];portConstraint=eastwest;" vertex="1" parent="Uez2oS0cG5EpuE5vD29g-159">
          <mxGeometry y="66" width="201.36" height="26" as="geometry" />
        </mxCell>
        <mxCell id="Uez2oS0cG5EpuE5vD29g-162" value="" style="line;html=1;strokeWidth=1;fillColor=none;align=left;verticalAlign=middle;spacingTop=-1;spacingLeft=3;spacingRight=3;rotatable=0;labelPosition=right;points=[];portConstraint=eastwest;" vertex="1" parent="Uez2oS0cG5EpuE5vD29g-159">
          <mxGeometry y="92" width="201.36" height="8" as="geometry" />
        </mxCell>
        <mxCell id="Uez2oS0cG5EpuE5vD29g-163" value="+ method(type): type" style="text;html=1;strokeColor=none;fillColor=none;align=left;verticalAlign=top;spacingLeft=4;spacingRight=4;whiteSpace=wrap;overflow=hidden;rotatable=0;points=[[0,0.5],[1,0.5]];portConstraint=eastwest;" vertex="1" parent="Uez2oS0cG5EpuE5vD29g-159">
          <mxGeometry y="100" width="201.36" height="26" as="geometry" />
        </mxCell>
        <mxCell id="Uez2oS0cG5EpuE5vD29g-164" value="+ method(type): type" style="text;html=1;strokeColor=none;fillColor=none;align=left;verticalAlign=top;spacingLeft=4;spacingRight=4;whiteSpace=wrap;overflow=hidden;rotatable=0;points=[[0,0.5],[1,0.5]];portConstraint=eastwest;" vertex="1" parent="Uez2oS0cG5EpuE5vD29g-159">
          <mxGeometry y="126" width="201.36" height="26" as="geometry" />
        </mxCell>
        <mxCell id="Uez2oS0cG5EpuE5vD29g-165" value="" style="endArrow=block;dashed=1;endFill=0;endSize=12;html=1;exitX=1;exitY=0.5;exitDx=0;exitDy=0;entryX=0;entryY=0.5;entryDx=0;entryDy=0;" edge="1" parent="1" target="Uez2oS0cG5EpuE5vD29g-159" source="Uez2oS0cG5EpuE5vD29g-10">
          <mxGeometry width="160" relative="1" as="geometry">
            <mxPoint x="138.64" y="628" as="sourcePoint" />
            <mxPoint x="317.28" y="849" as="targetPoint" />
          </mxGeometry>
        </mxCell>
      </root>
    </mxGraphModel>
  </diagram>
</mxfile>
